<svg width="29" height="20" viewBox="0 0 29 20" fill="none" xmlns="http://www.w3.org/2000/svg">
    <path fill-rule="evenodd" clip-rule="evenodd" d="M0.838509 0H2.01863C2.43789 0 2.85714 0.476191 2.85714 0.952381V1.90476C2.85714 2.44048 2.43789 2.85714 2.01863 2.85714H0.838509C0.366848 2.85714 0 2.44048 0 1.90476V0.952381C0 0.476191 0.366848 0 0.838509 0ZM6.5528 0H13.4472C13.8665 0 14.2857 0.476191 14.2857 0.952381V1.90476C14.2857 2.44048 13.8665 2.85714 13.4472 2.85714H6.5528C6.08113 2.85714 5.71429 2.44048 5.71429 1.90476V0.952381C5.71429 0.476191 6.08113 0 6.5528 0ZM14.2857 12.381C14.2857 11.9048 13.8665 11.4286 13.4472 11.4286H6.5528C6.08113 11.4286 5.71429 11.9048 5.71429 12.381V13.3333C5.71429 13.869 6.08113 14.2857 6.5528 14.2857H13.4472C13.8665 14.2857 14.2857 13.869 14.2857 13.3333V12.381ZM0.838509 11.4286H2.01863C2.43789 11.4286 2.85714 11.9048 2.85714 12.381V13.3333C2.85714 13.869 2.43789 14.2857 2.01863 14.2857H0.838509C0.366848 14.2857 0 13.869 0 13.3333V12.381C0 11.9048 0.366848 11.4286 0.838509 11.4286ZM9.16149 5.71429H6.5528C6.08113 5.71429 5.71429 6.19048 5.71429 6.66667V7.61905C5.71429 8.15476 6.08113 8.57143 6.5528 8.57143H9.16149C9.58075 8.57143 10 8.15476 10 7.61905V6.66667C10 6.19048 9.58075 5.71429 9.16149 5.71429ZM0.838509 5.71429H2.01863C2.43789 5.71429 2.85714 6.19048 2.85714 6.66667V7.61905C2.85714 8.15476 2.43789 8.57143 2.01863 8.57143H0.838509C0.366848 8.57143 0 8.15476 0 7.61905V6.66667C0 6.19048 0.366848 5.71429 0.838509 5.71429ZM26.255 17.1429H6.60212C6.10271 17.1429 5.71429 17.619 5.71429 18.0952V19.0476C5.71429 19.5833 6.10271 20 6.60212 20H26.255C26.6989 20 27.1429 19.5833 27.1429 19.0476V18.0952C27.1429 17.619 26.6989 17.1429 26.255 17.1429ZM0.887833 17.1429H1.96931C2.41323 17.1429 2.85714 17.619 2.85714 18.0952V19.0476C2.85714 19.5833 2.41323 20 1.96931 20H0.887833C0.388427 20 0 19.5833 0 19.0476V18.0952C0 17.619 0.388427 17.1429 0.887833 17.1429ZM27.9714 8.70842C28.3028 8.70842 28.5714 8.43979 28.5714 8.10841V6.21644C28.5714 5.88507 28.3028 5.61644 27.9714 5.61644H23.0357V0.6C23.0357 0.268629 22.7671 0 22.4357 0H20.4214C20.0901 0 19.8214 0.268629 19.8214 0.6V5.61644H14.8857C14.5543 5.61644 14.2857 5.88507 14.2857 6.21644V8.10841C14.2857 8.43979 14.5543 8.70842 14.8857 8.70842H19.8214V13.6857C19.8214 14.0171 20.0901 14.2857 20.4214 14.2857H22.4357C22.7671 14.2857 23.0357 14.0171 23.0357 13.6857V8.70842H27.9714Z" fill="#248937"/>
</svg>
